<?xml version="1.0" encoding="utf-8"?>
<!-- Generator: Adobe Illustrator 26.4.1, SVG Export Plug-In . SVG Version: 6.00 Build 0)  -->
<svg version="1.1" id="Capa_1" xmlns="http://www.w3.org/2000/svg" xmlns:xlink="http://www.w3.org/1999/xlink" x="0px" y="0px"
	 viewBox="0 0 528 512" style="enable-background:new 0 0 528 512;" xml:space="preserve">
<style type="text/css">
	.st0{stroke:#000000;stroke-width:10;stroke-miterlimit:10;}
</style>
<g>
	<path class="st0" d="M514.6,298c-4.4-5.9-10.8-9.8-18.2-10.9c-7.3-1.1-14.6,0.7-20.6,5.1l-15.1,11.2H67.3l-15.1-11.2
		c-5.9-4.4-13.3-6.2-20.6-5.1c-7.3,1.1-13.8,5-18.2,10.9C9,304,7.2,311.3,8.3,318.6c1.1,7.3,5,13.8,10.9,18.2l22.5,16.6
		c4.7,3.5,10.6,5.4,16.5,5.4h18.2c-5.8,7.1-9.3,16.1-9.3,26c0,22.6,18.4,41,41,41c20,0,36.8-14.5,40.3-33.5h4
		c7.9,0,15.3-4.3,19.2-11.1l12.9-22.4h128.3c4.1,0,7.5-3.4,7.5-7.5c0-4.1-3.4-7.5-7.5-7.5H58.2c-2.7,0-5.4-0.9-7.5-2.5l-22.5-16.6
		c-2.7-2-4.5-5-5-8.3c-0.5-3.4,0.3-6.7,2.3-9.4c2-2.7,5-4.5,8.3-5c3.4-0.5,6.7,0.3,9.4,2.3l17.1,12.6c1.3,1,2.9,1.5,4.5,1.5h398.4
		c1.6,0,3.2-0.5,4.5-1.5l17.1-12.6c2.7-2,6.1-2.8,9.4-2.3c3.4,0.5,6.3,2.3,8.3,5c2,2.7,2.8,6.1,2.3,9.4c-0.5,3.4-2.3,6.3-5,8.3
		l-22.5,16.6c-2.2,1.6-4.9,2.5-7.5,2.5l-121.9,0c-5-0.1-9.7,5.8-6.5,11.2l15.1,26.1c3.9,6.9,11.3,11.1,19.2,11.1h4
		c3.5,19,20.3,33.5,40.3,33.5c22.6,0,41-18.4,41-41c0-9.9-3.5-18.9-9.3-26h18.2c5.9,0,11.7-1.9,16.5-5.4l22.5-16.6
		c5.9-4.4,9.8-10.8,10.9-18.2C520.8,311.3,519,304,514.6,298L514.6,298z M108,410.8c-14.3,0-26-11.7-26-26s11.7-26,26-26
		s26,11.7,26,26S122.4,410.8,108,410.8z M158.5,373.7c-1.3,2.2-3.7,3.6-6.2,3.6h-4c-1.3-6.9-4.3-13.3-8.6-18.5h27.4L158.5,373.7z
		 M369.4,373.7l-8.6-14.9h27.4c-4.3,5.2-7.3,11.6-8.6,18.5h-4C373.1,377.3,370.7,375.9,369.4,373.7z M446,384.8
		c0,14.3-11.7,26-26,26c-14.3,0-26-11.7-26-26s11.7-26,26-26C434.3,358.8,446,370.4,446,384.8z"/>
	<path class="st0" d="M189.5,189.2c3.1-2.7,3.4-7.5,0.7-10.6c-20.2-22.9-13.6-49.2,1.1-64.1c13.1-13.3,36.9-21.5,60.8-1l6.8,6.4
		c2.9,2.7,7.4,2.7,10.3,0l6.8-6.4c23.8-20.5,47.6-12.2,60.8,1c14.6,14.8,21.3,41.1,1.2,64l-65.3,69c-2.3,2.4-5.3,3.7-8.6,3.7
		s-6.3-1.3-8.6-3.7L214.2,204c-2.8-3-7.6-3.1-10.6-0.3c-3,2.8-3.1,7.6-0.3,10.6l41.2,43.5c5,5.3,12.2,8.4,19.5,8.4
		c7.3,0,14.5-3.1,19.5-8.4l65.4-69.1c0.1-0.1,0.1-0.1,0.2-0.2c11.8-13.4,17.4-29,16.3-45.4c-1-14.6-7.4-28.5-18-39.2
		c-10.3-10.4-23.5-16.6-37.3-17.6c-15.5-1.1-30.7,4.4-44,15.9c-0.1,0.1-0.2,0.1-0.2,0.2l-1.8,1.7l-1.8-1.7c-0.1-0.1-0.1-0.1-0.2-0.2
		c-13.3-11.5-28.6-17-44-15.9c-13.8,1-27,7.3-37.3,17.6c-10.6,10.7-17,24.6-18,39.2c-1.1,16.3,4.5,32,16.3,45.3
		C181.6,191.6,186.4,191.9,189.5,189.2L189.5,189.2z"/>
	<circle cx="108" cy="384.8" r="7.5"/>
	<circle cx="420" cy="384.8" r="7.5"/>
</g>
</svg>
